{"title":"MTV Roadies X1 Season 11 - Episode 2 - Delhi Auditions HQ 480p -","uid":9552074,"size":282669649,"categoryP":"video","categoryS":"tv_shows","magnet":"?xt=urn:btih:a17b8011e8dec4d0df8b982aa8caf6ee132d1420&amp;dn=MTV+Roadies+X1+Season+11+-+Episode+2+-+Delhi+Auditions+HQ+480p+-&amp;tr=udp%3A%2F%2Ftracker.openbittorrent.com%3A80&amp;tr=udp%3A%2F%2Fopen.demonii.com%3A1337&amp;tr=udp%3A%2F%2Ftracker.coppersurfer.tk%3A6969&amp;tr=udp%3A%2F%2Fexodus.desync.com%3A6969","seeders":1,"leechers":0,"uploader":"ashish.p","files":1,"time":1391288330,"description":"General \n\nComplete name : MTV Roadies X1 Season 11 - Episode 2 - Delhi Auditions HQ 480p -AshishRocks- { DAKU RG }\nFormat : MPEG-4 \nFormat profile : Base Media \nCodec ID : isom \nFile size : 270 MiB \nDuration : 41mn 0s \nOverall bit rate mode : Variable \nOverall bit rate : 919 Kbps \nEncoded date : UTC 2014-01-30 22:05:16 \nTagged date : UTC 2014-01-30 22:05:16 \n\nVideo \n\nID : 1 \nFormat : AVC \nFormat/Info : Advanced Video Codec \nFormat profile : &lt;a class=&quot;__cf_email__&quot; href=&quot;/cdn-cgi/l/email-protection&quot; data-cfemail=&quot;92dff3fbfcd2dea1bca2&quot;&gt;[email&amp;#160;protected]&lt;/a&gt;&lt;script cf-hash='f9e31' type=&quot;text/javascript&quot;&gt;\n/* &lt;![CDATA[ */!function(){try{var t=&quot;currentScript&quot;in document?document.currentScript:function(){for(var t=document.getElementsByTagName(&quot;script&quot;),e=t.length;e--;)if(t[e].getAttribute(&quot;cf-hash&quot;))return t[e]}();if(t&amp;&amp;t.previousSibling){var e,r,n,i,c=t.previousSibling,a=c.getAttribute(&quot;data-cfemail&quot;);if(a){for(e=&quot;&quot;,r=parseInt(a.substr(0,2),16),n=2;a.length-n;n+=2)i=parseInt(a.substr(n,2),16)^r,e+=String.fromCharCode(i);e=document.createTextNode(e),c.parentNode.replaceChild(e,c)}}}catch(u){}}();/* ]]&gt; */&lt;/script&gt; \nFormat settings, CABAC : Yes \nFormat settings, ReFrames : 3 frames \nCodec ID : avc1 \nCodec ID/Info : Advanced Video Coding \nDuration : 41mn 0s \nDuration_LastFrame : -7ms \nBit rate : 790 Kbps \nWidth : 854 pixels \nHeight : 480 pixels \nDisplay aspect ratio : 16:9 \nFrame rate mode : Constant \nFrame rate : 25.000 fps \nColor space : YUV \nChroma subsampling : 4:2:0 \nBit depth : 8 bits \nScan type : Progressive \nBits/(Pixel*Frame) : 0.077 \nStream size : 232 MiB (86%) \nEncoded date : UTC 2014-01-30 22:05:16 \nTagged date : UTC 2014-01-30 22:05:16 \n\nAudio \n\nID : 2 \nFormat : AAC \nFormat/Info : Advanced Audio Codec \nFormat profile : LC \nCodec ID : 40 \nDuration : 41mn 0s \nBit rate mode : Variable \nBit rate : 126 Kbps \nChannel(s) : 2 channels \nChannel positions : Front: L R \nSampling rate : 44.1 KHz \nCompression mode : Lossy \nStream size : 36.8 MiB (14%) \nEncoded date : UTC 2014-01-30 22:05:41 \nTagged date : UTC 2014-01-30 22:05:41 \n","torrent":{"xt":"urn:btih:a17b8011e8dec4d0df8b982aa8caf6ee132d1420","amp;dn":"MTV+Roadies+X1+Season+11+-+Episode+2+-+Delhi+Auditions+HQ+480p+-","amp;tr":["udp%3A%2F%2Ftracker.openbittorrent.com%3A80","udp%3A%2F%2Fopen.demonii.com%3A1337","udp%3A%2F%2Ftracker.coppersurfer.tk%3A6969","udp%3A%2F%2Fexodus.desync.com%3A6969"],"infoHash":"a17b8011e8dec4d0df8b982aa8caf6ee132d1420","infoHashBuffer":{"type":"Buffer","data":[161,123,128,17,232,222,196,208,223,139,152,42,168,202,246,238,19,45,20,32]},"announce":[],"urlList":[]}}